inDegrees=yes
name=ik_appendData_table_pitch
DataType=double
version=3
OpenSimVersion=4.5
endheader
time	pelvis_tilt	pelvis_list	pelvis_rotation	pelvis_tx	pelvis_ty	pelvis_tz	hip_flexion_r	hip_adduction_r	hip_rotation_r	knee_angle_r	knee_angle_r_beta	ankle_angle_r	subtalar_angle_r	mtp_angle_r	hip_flexion_l	hip_adduction_l	hip_rotation_l	knee_angle_l	knee_angle_l_beta	ankle_angle_l	subtalar_angle_l	mtp_angle_l	lumbar_extension	lumbar_bending	lumbar_rotation	arm_flex_r	arm_add_r	arm_rot_r	elbow_flex_r	pro_sup_r	wrist_flex_r	wrist_dev_r	arm_flex_l	arm_add_l	arm_rot_l	elbow_flex_l	pro_sup_l	wrist_flex_l	wrist_dev_l
0	-0.1962012131402935	89.65413380231816	0.1963074300428251	0	0.9399999999999999	0	44.52190838475051	-10.08383735506876	0	59.93843514381899	1.046123041752722	-5.013226886944445	0	0	44.52190838475051	-10.08383735506876	0	59.93843514381899	1.046123041752722	-5.013226886944445	0	0	-0.00147553225169152	0.3449243925766451	-0.0001710417723542597	0	-12.10964336934957	0	76.36938724743423	44.88914410034435	0	0	-0.2373999224485491	-0.05536100117624791	-0.005549577046862385	0.4873563737979619	44.88914410034435	0	0
1	-0.1958174144826558	89.65489479424275	0.1965838350654439	0	0.9399999999999999	0	44.52200658804851	-10.08377745004718	0	59.93844512002504	1.046123215870365	-5.01321457119707	0	0	44.52200658804851	-10.08377745004718	0	59.93844512002504	1.046123215870365	-5.01321457119707	0	0	0.01092562371559113	0.344081403064726	0.001193553589891469	0	-12.10994814507137	0	76.36910592242009	44.8892068131488	0	0	-0.1787016072904438	0.5311057130894721	-0.0200770503813561	0.3704316485544988	44.8892068131488	0	0
2	-0.1974955199903345	89.65419332388549	0.1986121401539552	0	0.9399999999999999	0	44.5221902316333	-10.08366507707201	0	59.93846373386624	1.04612354074318	-5.013191453622479	0	0	44.5221902316333	-10.08366507707201	0	59.93846373386624	1.04612354074318	-5.013191453622479	0	0	0.0008884214597267888	0.3433225711373294	7.746768441655515e-05	0	-12.11051720346557	0	76.36857983417023	44.88932438421673	0	0	-1.073461867796086	0.4637373091183008	-0.01821923886393283	1.0542586918468	44.88932438421673	0	0
3	-0.1982594992809943	89.65409663868597	0.1981148757743826	0	0.9399999999999999	0	44.52230128978057	-10.08359721350385	0	59.93847499690049	1.046123737320211	-5.01317749878625	0	0	44.52230128978057	-10.08359721350385	0	59.93847499690049	1.046123737320211	-5.01317749878625	0	0	-0.0109650311553609	0.3461776854222238	6.540347630682632e-05	0	-12.11086151277665	0	76.36826168336911	44.88939541055973	0	0	-1.185507030349451	-0.1327219378040481	-0.009245175250542999	1.288065033649587	44.88939541055973	0	0
4	-0.757085593901534	89.66647180020266	-0.3610955138282504	0	0.9399999999999999	0	44.52241157047725	-10.08353017657657	0	59.93848622547795	1.046123933295859	-5.013163728939091	0	0	44.52241157047725	-10.08353017657657	0	59.93848622547795	1.046123933295859	-5.013163728939091	0	0	-0.0006273515595661086	0.3379203111440628	1.109651553096277	0	-12.11120440427502	0	76.36794576055489	44.88946563909636	0	0	-1.204826370895703	-0.1307038060315512	-0.02047585722497608	1.285951557860352	44.88946563909636	0	0
5	-0.7591223403684235	89.66645888061817	-0.3690518781899648	0	0.9399999999999999	0	44.5225972463171	-10.08341673930845	0	59.93850503919194	1.046124261657112	-5.013140411571367	0	0	44.5225972463171	-10.08341673930845	0	59.93850503919194	1.046124261657112	-5.013140411571367	0	0	-0.003163699925953274	0.3336946355397742	1.127966562840375	0	-12.11177979279295	0	76.36741385068881	44.88958438743109	0	0	-0.236060492510366	-0.05487011698825697	-0.005518266367060532	0.4873255948723397	44.88958438743109	0	0
6	-0.7577582482064414	89.66531917707157	-0.3713162118004287	0	0.9399999999999999	0	44.52275338864375	-10.08332138605595	0	59.93852085566721	1.046124537706682	-5.013120817137208	0	0	44.52275338864375	-10.08332138605595	0	59.93852085566721	1.046124537706682	-5.013120817137208	0	0	-0.002436152371323067	0.3353857956376517	1.128498872434999	0	-12.11226361380415	0	76.36696654619459	44.88968422300655	0	0	0.4831171933640989	-0.03176030123127796	-0.008320542403599055	0.1843909028068842	44.88968422300655	0	0
7	-0.7571115812683232	89.66350033096313	-0.3686113261822942	0	0.9399999999999999	0	44.52296557534636	-10.08319240002206	0	59.93854239955083	1.046124913718385	-5.013094345830914	0	0	44.52296557534636	-10.08319240002206	0	59.93854239955083	1.046124913718385	-5.013094345830914	0	0	-0.005149460697708373	0.3373543393045208	1.12571700863299	0	-12.11292229652956	0	76.36635869119912	44.88981941097289	0	0	2.274827373837733	-0.02649373660276113	0.5512527786634758	0.0525488954957736	44.88981941097289	0	0
8	-0.8934082287854086	89.66424372879779	-0.2347316260171619	0	0.9399999999999999	0	44.5274181263967	-10.08071557370081	0	59.93901698717391	1.046133196834997	-5.01259979691591	0	0	44.5274181263967	-10.08071557370081	0	59.93901698717391	1.046133196834997	-5.01259979691591	0	0	-0.006874751033026101	0.3387238980074763	1.126200589236984	0	-12.12723459265569	0	76.3536038864664	44.89246993113057	0	0	4.578315753853728	-0.05235942312784283	0.5275224855615781	0.02666472377936466	44.89246993113057	0	0
9	-0.8828850953889625	89.66244088271901	-0.2457080624125471	0	0.9399999999999999	0	44.52950035448393	-10.07986374884354	0	59.93928142167717	1.046137812087734	-5.012441339454684	0	0	44.52950035448393	-10.07986374884354	0	59.93928142167717	1.046137812087734	-5.012441339454684	0	0	-0.004789467889917742	0.3414725018811086	1.127769923716665	0	-12.13490631794783	0	76.34763983479262	44.89343924212307	0	0	7.479919487724729	-0.6682927862925443	0.5505780983749029	0.01670315251333672	44.89343924212307	0	0
10	-1.421956238719	89.67136976271755	-0.8075136873866848	0	0.9399999999999999	0	44.53218598742127	-10.0787879050787	0	59.93962550790192	1.046143817525267	-5.012242376938873	0	0	44.53218598742127	-10.0787879050787	0	59.93962550790192	1.046143817525267	-5.012242376938873	0	0	-0.02170882770267681	0.3428281144395773	2.20383321175551	0	-12.1448763609866	0	76.33994752822707	44.89466926195492	0	0	10.89726863521131	-1.279358715850528	0.5804833715701821	0.01158196847671931	44.89466926195492	0	0
11	-1.263780612074084	89.68248934870415	-0.9718033042088028	0	0.9399999999999999	0	44.53923984332126	-10.07520392749041	0	59.94041023339285	1.046157513568808	-5.011541919300798	0	0	44.53923984332126	-10.07520392749041	0	59.94041023339285	1.046157513568808	-5.011541919300798	0	0	-0.01084751404215227	0.3173386137200727	2.253629683844212	0	-12.16849373942227	0	76.31974174175888	44.8985752294281	0	0	14.36884268784056	-1.81082081465116	1.294710213106974	0.008804535317835076	44.8985752294281	0	0
